<svg id="Layer_3" data-name="Layer 3" xmlns="http://www.w3.org/2000/svg" viewBox="0 0 657.07 362.72">
  <defs>
    <style>
      .cls-1 {
        font-size: 132.22px;
        font-family: TimesNewRomanPSMT, Times New Roman;
      }

      .cls-1, .cls-2 {
        fill: #f6339b;
      }
    </style>
  </defs>
  <text class="cls-1" transform="translate(197.21 163.51) scale(0.64 1)">Growth Skill </text>
  <g>
    <path class="cls-2" d="M171.79,220.29S146.4,190,103.2,199.22,56.38,247,56.38,247s-3.3,42.69,54.74,53.23L56.35,371.32l122-126.17-67.59-1.08v17.56l44.39.54s-12.65,31.41-53.95,17.29S86.39,214.62,114.42,216s37.26,14.86,37.26,14.86Z" transform="translate(-56.35 -156.96)"/>
    <path class="cls-2" d="M178,265.4l-16.34,15s3.15,4.51,34.81,7.93S212.89,307,212.89,307s-18.76,15.73-57.89-6.72l-12.61,15.19s29.72,20.1,66.1,13.88,31.77-28.68,31.66-32-2.75-22.6-31-26.11S191.38,268.82,178,265.4Z" transform="translate(-56.35 -156.96)"/>
    <polyline class="cls-2" points="153.34 58.94 125.56 89.34 11.33 214.36 153.34 71.19 160.37 80.56 227.46 12 230.72 24.72 235.74 0 204.78 2.74 223.68 5.63 163.45 68.31 156.85 54.6"/>
    <path class="cls-2" d="M191.39,250.26s22.9,6.75,23.3,8.89l12.61-15-19.58-10.09Z" transform="translate(-56.35 -156.96)"/>
  </g>
  <text x="-56.35" y="-156.96"/></svg>
