<svg width="831" height="229" viewBox="0 0 831 229" fill="none" xmlns="http://www.w3.org/2000/svg">
<path d="M215.287 114.46C215.287 112.626 217.383 111.141 221.575 110.006C225.767 108.871 230.308 108.303 235.199 108.303C240.09 108.303 243.801 110.268 246.334 114.198C248.954 118.128 250.264 122.495 250.264 127.298C250.264 132.101 248.212 140.398 244.107 152.188C240.09 163.891 236.596 169.742 233.627 169.742C232.404 169.742 231.356 169.349 230.483 168.563C229.697 167.864 229.304 166.947 229.304 165.812C229.304 159.524 231.051 150.529 234.544 138.826C230.439 144.066 225.942 148.302 221.051 151.533C216.248 154.764 211.27 156.38 206.117 156.38C201.052 156.38 195.724 154.153 190.135 149.699C184.546 145.245 181.751 140.354 181.751 135.027C181.751 125.595 184.546 115.159 190.135 103.718C195.724 92.19 202.798 82.365 211.357 74.243C219.916 66.121 227.994 62.06 235.592 62.06C238.212 62.06 240.919 64.1123 243.714 68.217C246.596 72.3217 248.037 76.077 248.037 79.483C248.037 81.055 247.469 81.841 246.334 81.841C246.159 81.841 245.33 81.6663 243.845 81.317C242.36 80.9677 240.526 80.793 238.343 80.793C232.492 80.793 226.509 83.806 220.396 89.832C214.283 95.7707 209.305 103.107 205.462 111.84C201.619 120.573 199.698 128.783 199.698 136.468C199.698 138.739 201.183 139.874 204.152 139.874C208.257 139.874 213.278 138.04 219.217 134.372C225.243 130.704 229.872 126.599 233.103 122.058C231.182 122.145 228.824 122.189 226.029 122.189C223.322 122.189 220.833 121.359 218.562 119.7C216.379 118.041 215.287 116.294 215.287 114.46ZM267.645 111.971L266.859 97.168C266.859 92.2773 268.387 89.832 271.444 89.832C273.191 89.832 274.894 90.487 276.553 91.797C278.3 93.107 279.61 95.1593 280.483 97.954C283.452 95.334 286.684 93.238 290.177 91.666C293.758 90.0067 296.902 89.177 299.609 89.177C305.984 89.177 309.172 90.7053 309.172 93.762C309.172 95.334 308.866 96.513 308.255 97.299C307.731 97.9977 307.294 98.5217 306.945 98.871C306.683 99.2203 306.159 99.7007 305.373 100.312C304.674 100.836 304.15 101.229 303.801 101.491C301.792 102.801 300.351 103.718 299.478 104.242C295.548 106.687 292.186 109.657 289.391 113.15C286.596 116.556 284.5 121.316 283.103 127.429C280.745 137.472 278.431 144.983 276.16 149.961C273.977 154.852 271.488 157.297 268.693 157.297C265.986 157.297 263.933 155.987 262.536 153.367C261.226 150.747 260.571 148.302 260.571 146.031C260.571 143.673 261.401 140.18 263.06 135.551C264.807 130.922 265.986 126.949 266.597 123.63C267.296 120.224 267.645 116.338 267.645 111.971ZM326.373 144.066C331.089 141.97 335.194 137.734 338.687 131.359C342.18 124.984 343.927 119.001 343.927 113.412C343.927 107.823 343.141 103.98 341.569 101.884C337.814 104.067 334.058 108.652 330.303 115.639C326.635 122.626 324.801 128.783 324.801 134.11C324.801 139.35 325.325 142.669 326.373 144.066ZM307.247 135.42C307.247 124.503 310.609 114.154 317.334 104.373C324.146 94.5917 330.871 89.701 337.508 89.701C344.145 89.701 349.735 92.059 354.276 96.775C358.817 101.404 361.088 107.037 361.088 113.674C361.088 120.224 359.516 126.905 356.372 133.717C353.228 140.529 348.818 146.206 343.141 150.747C337.464 155.201 331.395 157.428 324.932 157.428C320.129 157.428 315.98 155.288 312.487 151.009C308.994 146.73 307.247 141.533 307.247 135.42ZM446.245 89.832C448.69 89.832 451.354 90.6617 454.236 92.321C457.205 93.9803 458.69 95.727 458.69 97.561C458.69 99.395 457.205 105.596 454.236 116.163C451.267 126.73 446.594 136.25 440.219 144.721C433.931 153.105 429.259 157.297 426.202 157.297C424.979 157.297 423.145 156.424 420.7 154.677C418.255 152.93 416.508 150.965 415.46 148.782C413.626 145.201 412.709 134.721 412.709 117.342C408.954 129.569 404.674 139.306 399.871 146.555C395.068 153.716 391.181 157.297 388.212 157.297C386.902 157.297 384.981 156.424 382.448 154.677C380.003 152.93 378.431 151.184 377.732 149.437C375.811 144.721 373.977 135.726 372.23 122.451C370.483 109.176 369.61 100.094 369.61 95.203C369.61 91.6223 370.833 89.832 373.278 89.832C376.597 89.832 380.003 91.8407 383.496 95.858C386.989 99.8753 388.736 103.019 388.736 105.29C388.736 117.953 388.867 128.04 389.129 135.551C392.622 130.224 395.766 123.586 398.561 115.639C401.443 107.692 403.757 101.404 405.504 96.775C407.251 92.1463 409.085 89.832 411.006 89.832C414.849 89.832 418.648 91.7097 422.403 95.465C426.158 99.133 428.036 102.888 428.036 106.731C428.036 108.478 427.73 112.102 427.119 117.604C426.595 123.106 426.333 127.254 426.333 130.049C426.333 132.844 426.508 135.158 426.857 136.992C429.739 134.11 432.228 129.874 434.324 124.285C436.507 118.696 438.079 113.412 439.04 108.434C441.485 96.0327 443.887 89.832 446.245 89.832ZM494.579 105.421C493.88 107.779 492.832 111.098 491.435 115.377C490.125 119.569 488.466 124.853 486.457 131.228C484.536 137.603 483.575 141.009 483.575 141.446C483.575 141.795 484.274 141.97 485.671 141.97C487.156 141.97 490.605 141.009 496.02 139.088C501.435 137.079 504.622 136.075 505.583 136.075C507.766 136.075 508.858 137.56 508.858 140.529C508.858 143.498 505.932 147.079 500.081 151.271C494.23 155.376 488.116 157.428 481.741 157.428C478.946 157.428 475.628 155.9 471.785 152.843C467.942 149.786 466.021 146.686 466.021 143.542C466.021 140.922 467.331 135.42 469.951 127.036C472.658 118.565 474.492 112.757 475.453 109.613C472.047 110.574 469.471 111.054 467.724 111.054C465.977 111.054 464.143 109.875 462.222 107.517C460.301 105.072 459.34 102.757 459.34 100.574C459.34 97.7793 466.108 95.4213 479.645 93.5C481.304 85.378 482.134 78.3477 482.134 72.409C482.134 69.789 483.444 68.479 486.064 68.479C488.335 68.479 491.217 69.8763 494.71 72.671C498.291 75.3783 500.081 78.0857 500.081 80.793C500.081 83.413 499.513 87.1247 498.378 91.928C502.57 91.7533 505.758 91.666 507.941 91.666C514.491 91.666 517.766 93.1507 517.766 96.12C517.766 98.0413 515.845 99.7007 512.002 101.098C508.247 102.408 502.439 103.849 494.579 105.421ZM536.129 58.654C536.129 54.986 537.57 53.152 540.452 53.152C542.81 53.152 545.517 55.117 548.574 59.047C551.63 62.977 553.159 66.3393 553.159 69.134C553.159 71.9287 552.591 75.8587 551.456 80.924C550.32 85.9893 549.141 90.618 547.919 94.81C546.783 99.002 545.037 104.984 542.679 112.757C540.321 120.442 538.705 125.813 537.832 128.87C543.508 117.342 549.491 107.954 555.779 100.705C562.154 93.4563 567.481 89.832 571.761 89.832C574.468 89.832 577.568 92.2337 581.062 97.037C584.555 101.753 586.302 106.032 586.302 109.875C586.302 113.63 585.603 119.132 584.206 126.381C582.808 133.63 580.363 140.616 576.87 147.341C573.376 154.066 569.796 157.428 566.128 157.428C563.246 157.428 561.805 155.376 561.805 151.271C561.805 148.302 562.678 143.455 564.425 136.73C566.957 126.687 568.224 120.573 568.224 118.39C568.224 116.207 567.874 115.115 567.176 115.115C562.11 115.115 554.687 123.543 544.906 140.398C541.587 146.162 538.792 150.441 536.522 153.236C534.338 156.031 532.242 157.428 530.234 157.428C528.225 157.428 525.78 155.812 522.898 152.581C520.103 149.35 518.706 146.861 518.706 145.114C518.706 143.28 519.055 140.616 519.754 137.123C520.54 133.63 521.675 128.652 523.16 122.189C524.732 115.726 527.264 104.024 530.758 87.081C534.338 70.051 536.129 60.5753 536.129 58.654Z" fill="#E4205E"/>
<path d="M655.663 130.18C655.663 137.603 652.126 143.979 645.052 149.306C637.978 154.633 629.9 157.297 620.817 157.297C611.734 157.297 604.398 155.07 598.809 150.616C593.307 146.075 590.556 141.402 590.556 136.599C590.556 131.796 591.91 129.394 594.617 129.394C596.713 129.394 598.896 130.442 601.167 132.538C603.438 134.634 605.97 136.73 608.765 138.826C611.647 140.922 614.878 141.97 618.459 141.97C622.04 141.97 626.101 140.485 630.642 137.516C635.183 134.547 637.454 132.058 637.454 130.049C637.454 128.04 634.965 124.678 629.987 119.962C625.096 115.246 620.162 110.399 615.184 105.421C610.293 100.356 607.848 96.4693 607.848 93.762C607.848 90.9673 608.328 87.9543 609.289 84.723C610.337 81.4917 611.603 79.2647 613.088 78.042C617.804 73.4133 623.874 69.4397 631.297 66.121C638.808 62.715 645.401 61.012 651.078 61.012C654.397 61.012 657.148 62.453 659.331 65.335C661.514 68.1297 662.606 71.0553 662.606 74.112C662.606 75.3347 661.602 76.339 659.593 77.125C657.672 77.8237 654.833 78.566 651.078 79.352C647.41 80.138 643.655 81.2733 639.812 82.758C630.904 86.0767 626.45 88.8713 626.45 91.142C626.45 92.19 627.978 94.1113 631.035 96.906C634.092 99.6133 637.41 102.495 640.991 105.552C644.659 108.521 648.021 112.32 651.078 116.949C654.135 121.49 655.663 125.901 655.663 130.18ZM678.032 157.428C676.024 157.428 673.491 155.812 670.434 152.581C667.465 149.35 665.98 146.773 665.98 144.852C665.98 144.328 667.421 139.132 670.303 129.263C673.273 119.394 676.198 107.517 679.08 93.631C682.05 79.745 683.534 67.6057 683.534 57.213C683.534 54.5057 684.757 53.152 687.202 53.152C689.298 53.152 692.049 55.0733 695.455 58.916C698.949 62.6713 700.695 66.2083 700.695 69.527C700.695 74.3303 698.949 83.413 695.455 96.775C692.049 110.137 688.643 120.661 685.237 128.346C686.373 126.861 687.901 124.896 689.822 122.451C691.831 119.918 693.447 117.866 694.669 116.294C695.892 114.722 697.377 112.801 699.123 110.53C700.957 108.259 702.486 106.425 703.708 105.028C704.931 103.543 706.285 101.928 707.769 100.181C709.254 98.347 710.52 96.906 711.568 95.858C712.704 94.7227 713.839 93.6747 714.974 92.714C717.07 90.7927 718.686 89.832 719.821 89.832C722.005 89.832 724.406 91.3167 727.026 94.286C729.646 97.168 730.956 99.7007 730.956 101.884C730.956 102.757 729.079 104.766 725.323 107.91C721.655 111.054 717.944 114.547 714.188 118.39C710.52 122.233 708.686 125.682 708.686 128.739C708.686 131.708 709.56 134.634 711.306 137.516C713.14 140.311 715.105 142.45 717.201 143.935C719.297 145.42 721.219 146.948 722.965 148.52C724.799 150.005 725.716 151.271 725.716 152.319C725.716 155.725 723.402 157.428 718.773 157.428C713.271 157.428 705.979 152.799 696.896 143.542L693.752 140.398C685.892 151.751 680.652 157.428 678.032 157.428ZM743.292 73.457C743.292 71.1863 744.296 68.872 746.305 66.514C748.401 64.0687 750.409 62.846 752.331 62.846C754.339 62.846 756.697 65.204 759.405 69.92C762.112 74.636 763.466 78.0857 763.466 80.269C763.466 82.365 762.767 83.9807 761.37 85.116C759.972 86.2513 758.531 86.819 757.047 86.819C754.514 86.819 751.588 85.1597 748.27 81.841C744.951 78.5223 743.292 75.7277 743.292 73.457ZM745.257 89.832C748.313 89.832 751.021 91.5787 753.379 95.072C755.824 98.5653 757.047 101.928 757.047 105.159C757.047 106.818 755.518 112.801 752.462 123.106C749.492 133.324 746.523 143.018 743.554 152.188C742.506 155.594 740.366 157.297 737.135 157.297C735.213 157.297 733.51 156.598 732.026 155.201C730.628 153.716 729.93 151.839 729.93 149.568C729.93 147.21 731.021 141.446 733.205 132.276C735.475 123.019 737.178 115.159 738.314 108.696C739.536 102.146 740.628 97.3863 741.589 94.417C742.637 91.3603 743.859 89.832 745.257 89.832ZM782.954 53.152C785.05 53.152 787.757 55.0733 791.076 58.916C794.395 62.7587 796.054 66.4267 796.054 69.92C796.054 73.4133 795.53 79.6577 794.482 88.653C793.434 97.561 792.342 104.679 791.207 110.006C783.958 141.621 778.893 157.428 776.011 157.428C774.09 157.428 771.688 155.9 768.806 152.843C766.011 149.699 764.614 147.123 764.614 145.114C764.614 144.939 765.793 140.398 768.151 131.49C770.509 122.582 772.867 111.141 775.225 97.168C777.67 83.1073 778.893 69.7017 778.893 56.951C778.893 54.4183 780.247 53.152 782.954 53.152ZM817.751 53.152C819.847 53.152 822.554 55.0733 825.873 58.916C829.192 62.7587 830.851 66.4267 830.851 69.92C830.851 73.4133 830.327 79.6577 829.279 88.653C828.231 97.561 827.139 104.679 826.004 110.006C818.755 141.621 813.69 157.428 810.808 157.428C808.887 157.428 806.485 155.9 803.603 152.843C800.808 149.699 799.411 147.123 799.411 145.114C799.411 144.939 800.59 140.398 802.948 131.49C805.306 122.582 807.664 111.141 810.022 97.168C812.467 83.1073 813.69 69.7017 813.69 56.951C813.69 54.4183 815.044 53.152 817.751 53.152Z" fill="#451524"/>
<circle cx="85" cy="105" r="85" fill="#0E0B0B"/>
<path d="M82.287 94.46C82.287 92.626 84.383 91.1413 88.575 90.006C92.767 88.8707 97.3083 88.303 102.199 88.303C107.09 88.303 110.801 90.268 113.334 94.198C115.954 98.128 117.264 102.495 117.264 107.298C117.264 112.101 115.212 120.398 111.107 132.188C107.09 143.891 103.596 149.742 100.627 149.742C99.4043 149.742 98.3563 149.349 97.483 148.563C96.697 147.864 96.304 146.947 96.304 145.812C96.304 139.524 98.0507 130.529 101.544 118.826C97.4393 124.066 92.9417 128.302 88.051 131.533C83.2477 134.764 78.2697 136.38 73.117 136.38C68.0517 136.38 62.7243 134.153 57.135 129.699C51.5457 125.245 48.751 120.354 48.751 115.027C48.751 105.595 51.5457 95.1587 57.135 83.718C62.7243 72.19 69.7983 62.365 78.357 54.243C86.9157 46.121 94.994 42.06 102.592 42.06C105.212 42.06 107.919 44.1123 110.714 48.217C113.596 52.3217 115.037 56.077 115.037 59.483C115.037 61.055 114.469 61.841 113.334 61.841C113.159 61.841 112.33 61.6663 110.845 61.317C109.36 60.9677 107.526 60.793 105.343 60.793C99.4917 60.793 93.5093 63.806 87.396 69.832C81.2827 75.7707 76.3047 83.1067 72.462 91.84C68.6193 100.573 66.698 108.783 66.698 116.468C66.698 118.739 68.1827 119.874 71.152 119.874C75.2567 119.874 80.2783 118.04 86.217 114.372C92.243 110.704 96.8717 106.599 100.103 102.058C98.1817 102.145 95.8237 102.189 93.029 102.189C90.3217 102.189 87.8327 101.359 85.562 99.7C83.3787 98.0407 82.287 96.294 82.287 94.46Z" fill="white"/>
</svg>
